<svg xmlns="http://www.w3.org/2000/svg" width="856" height="250" viewBox="0 0 856 250" role="img" font-family="ui-sans-serif, system-ui, 'PingFang SC', 'Microsoft YaHei', sans-serif" aria-label="Contribution activity for Zewang0217">
<rect x="0.5" y="0.5" width="855" height="249" rx="10" fill="#ECEFF4" stroke="#D8DEE9"/>
<text x="32" y="40" fill="#5E81AC" font-size="18" font-weight="600">Zewang0217's Contribution Activity</text>
<line x1="32" y1="54" x2="824" y2="54" stroke="#D8DEE9"/>
<text x="32" y="76" fill="#2E3440" font-size="13" font-weight="600">Contributions</text>
<text x="824" y="76" fill="#4C566A" font-size="12" text-anchor="end">3,154 in the last year</text>
<text x="32" y="93" fill="#4C566A" font-size="11">Sep</text>
<text x="92" y="93" fill="#4C566A" font-size="11">Oct</text>
<text x="152" y="93" fill="#4C566A" font-size="11">Nov</text>
<text x="227" y="93" fill="#4C566A" font-size="11">Dec</text>
<text x="287" y="93" fill="#4C566A" font-size="11">Jan</text>
<text x="347" y="93" fill="#4C566A" font-size="11">Feb</text>
<text x="407" y="93" fill="#4C566A" font-size="11">Mar</text>
<text x="482" y="93" fill="#4C566A" font-size="11">Apr</text>
<text x="542" y="93" fill="#4C566A" font-size="11">May</text>
<text x="617" y="93" fill="#4C566A" font-size="11">Jun</text>
<text x="677" y="93" fill="#4C566A" font-size="11">Jul</text>
<text x="737" y="93" fill="#4C566A" font-size="11">Aug</text>
<text x="812" y="93" fill="#4C566A" font-size="11">Sep</text>
<rect x="32" y="100" width="12" height="12" rx="2.5" fill="#D8DEE9"><title>2025-09-07: 0 contributions</title></rect>
<rect x="32" y="115" width="12" height="12" rx="2.5" fill="#D8DEE9"><title>2025-09-08: 0 contributions</title></rect>
<rect x="32" y="130" width="12" height="12" rx="2.5" fill="#D8DEE9"><title>2025-09-09: 0 contributions</title></rect>
<rect x="32" y="145" width="12" height="12" rx="2.5" fill="#D8DEE9"><title>2025-09-10: 0 contributions</title></rect>
<rect x="32" y="160" width="12" height="12" rx="2.5" fill="#D8DEE9"><title>2025-09-11: 0 contributions</title></rect>
<rect x="32" y="175" width="12" height="12" rx="2.5" fill="#D8DEE9"><title>2025-09-12: 0 contributions</title></rect>
<rect x="32" y="190" width="12" height="12" rx="2.5" fill="#D8DEE9"><title>2025-09-13: 0 contributions</title></rect>
<rect x="47" y="100" width="12" height="12" rx="2.5" fill="#D8DEE9"><title>2025-09-14: 0 contributions</title></rect>
<rect x="47" y="115" width="12" height="12" rx="2.5" fill="#D8DEE9"><title>2025-09-15: 0 contributions</title></rect>
<rect x="47" y="130" width="12" height="12" rx="2.5" fill="#D8DEE9"><title>2025-09-16: 0 contributions</title></rect>
<rect x="47" y="145" width="12" height="12" rx="2.5" fill="#D8DEE9"><title>2025-09-17: 0 contributions</title></rect>
<rect x="47" y="160" width="12" height="12" rx="2.5" fill="#81A1C1"><title>2025-09-18: 2 contributions</title></rect>
<rect x="47" y="175" width="12" height="12" rx="2.5" fill="#D8DEE9"><title>2025-09-19: 0 contributions</title></rect>
<rect x="47" y="190" width="12" height="12" rx="2.5" fill="#D8DEE9"><title>2025-09-20: 0 contributions</title></rect>
<rect x="62" y="100" width="12" height="12" rx="2.5" fill="#81A1C1"><title>2025-09-21: 1 contribution</title></rect>
<rect x="62" y="115" width="12" height="12" rx="2.5" fill="#5E81AC"><title>2025-09-22: 5 contributions</title></rect>
<rect x="62" y="130" width="12" height="12" rx="2.5" fill="#5E81AC"><title>2025-09-23: 5 contributions</title></rect>
<rect x="62" y="145" width="12" height="12" rx="2.5" fill="#D8DEE9"><title>2025-09-24: 0 contributions</title></rect>
<rect x="62" y="160" width="12" height="12" rx="2.5" fill="#5E81AC"><title>2025-09-25: 5 contributions</title></rect>
<rect x="62" y="175" width="12" height="12" rx="2.5" fill="#81A1C1"><title>2025-09-26: 3 contributions</title></rect>
<rect x="62" y="190" width="12" height="12" rx="2.5" fill="#D8DEE9"><title>2025-09-27: 0 contributions</title></rect>
<rect x="77" y="100" width="12" height="12" rx="2.5" fill="#81A1C1"><title>2025-09-28: 1 contribution</title></rect>
<rect x="77" y="115" width="12" height="12" rx="2.5" fill="#81A1C1"><title>2025-09-29: 3 contributions</title></rect>
<rect x="77" y="130" width="12" height="12" rx="2.5" fill="#D8DEE9"><title>2025-09-30: 0 contributions</title></rect>
<rect x="77" y="145" width="12" height="12" rx="2.5" fill="#5E81AC"><title>2025-10-01: 4 contributions</title></rect>
<rect x="77" y="160" width="12" height="12" rx="2.5" fill="#D8DEE9"><title>2025-10-02: 0 contributions</title></rect>
<rect x="77" y="175" width="12" height="12" rx="2.5" fill="#D8DEE9"><title>2025-10-03: 0 contributions</title></rect>
<rect x="77" y="190" width="12" height="12" rx="2.5" fill="#D8DEE9"><title>2025-10-04: 0 contributions</title></rect>
<rect x="92" y="100" width="12" height="12" rx="2.5" fill="#D8DEE9"><title>2025-10-05: 0 contributions</title></rect>
<rect x="92" y="115" width="12" height="12" rx="2.5" fill="#D8DEE9"><title>2025-10-06: 0 contributions</title></rect>
<rect x="92" y="130" width="12" height="12" rx="2.5" fill="#D8DEE9"><title>2025-10-07: 0 contributions</title></rect>
<rect x="92" y="145" width="12" height="12" rx="2.5" fill="#D8DEE9"><title>2025-10-08: 0 contributions</title></rect>
<rect x="92" y="160" width="12" height="12" rx="2.5" fill="#81A1C1"><title>2025-10-09: 2 contributions</title></rect>
<rect x="92" y="175" width="12" height="12" rx="2.5" fill="#D8DEE9"><title>2025-10-10: 0 contributions</title></rect>
<rect x="92" y="190" width="12" height="12" rx="2.5" fill="#D8DEE9"><title>2025-10-11: 0 contributions</title></rect>
<rect x="107" y="100" width="12" height="12" rx="2.5" fill="#D8DEE9"><title>2025-10-12: 0 contributions</title></rect>
<rect x="107" y="115" width="12" height="12" rx="2.5" fill="#D8DEE9"><title>2025-10-13: 0 contributions</title></rect>
<rect x="107" y="130" width="12" height="12" rx="2.5" fill="#81A1C1"><title>2025-10-14: 2 contributions</title></rect>
<rect x="107" y="145" width="12" height="12" rx="2.5" fill="#D8DEE9"><title>2025-10-15: 0 contributions</title></rect>
<rect x="107" y="160" width="12" height="12" rx="2.5" fill="#D8DEE9"><title>2025-10-16: 0 contributions</title></rect>
<rect x="107" y="175" width="12" height="12" rx="2.5" fill="#D8DEE9"><title>2025-10-17: 0 contributions</title></rect>
<rect x="107" y="190" width="12" height="12" rx="2.5" fill="#D8DEE9"><title>2025-10-18: 0 contributions</title></rect>
<rect x="122" y="100" width="12" height="12" rx="2.5" fill="#D8DEE9"><title>2025-10-19: 0 contributions</title></rect>
<rect x="122" y="115" width="12" height="12" rx="2.5" fill="#D8DEE9"><title>2025-10-20: 0 contributions</title></rect>
<rect x="122" y="130" width="12" height="12" rx="2.5" fill="#5E81AC"><title>2025-10-21: 7 contributions</title></rect>
<rect x="122" y="145" width="12" height="12" rx="2.5" fill="#81A1C1"><title>2025-10-22: 1 contribution</title></rect>
<rect x="122" y="160" width="12" height="12" rx="2.5" fill="#D8DEE9"><title>2025-10-23: 0 contributions</title></rect>
<rect x="122" y="175" width="12" height="12" rx="2.5" fill="#D8DEE9"><title>2025-10-24: 0 contributions</title></rect>
<rect x="122" y="190" width="12" height="12" rx="2.5" fill="#D8DEE9"><title>2025-10-25: 0 contributions</title></rect>
<rect x="137" y="100" width="12" height="12" rx="2.5" fill="#D8DEE9"><title>2025-10-26: 0 contributions</title></rect>
<rect x="137" y="115" width="12" height="12" rx="2.5" fill="#81A1C1"><title>2025-10-27: 3 contributions</title></rect>
<rect x="137" y="130" width="12" height="12" rx="2.5" fill="#D8DEE9"><title>2025-10-28: 0 contributions</title></rect>
<rect x="137" y="145" width="12" height="12" rx="2.5" fill="#D8DEE9"><title>2025-10-29: 0 contributions</title></rect>
<rect x="137" y="160" width="12" height="12" rx="2.5" fill="#D8DEE9"><title>2025-10-30: 0 contributions</title></rect>
<rect x="137" y="175" width="12" height="12" rx="2.5" fill="#5E81AC"><title>2025-10-31: 4 contributions</title></rect>
<rect x="137" y="190" width="12" height="12" rx="2.5" fill="#81A1C1"><title>2025-11-01: 1 contribution</title></rect>
<rect x="152" y="100" width="12" height="12" rx="2.5" fill="#81A1C1"><title>2025-11-02: 2 contributions</title></rect>
<rect x="152" y="115" width="12" height="12" rx="2.5" fill="#5E81AC"><title>2025-11-03: 5 contributions</title></rect>
<rect x="152" y="130" width="12" height="12" rx="2.5" fill="#5E81AC"><title>2025-11-04: 4 contributions</title></rect>
<rect x="152" y="145" width="12" height="12" rx="2.5" fill="#5E81AC"><title>2025-11-05: 9 contributions</title></rect>
<rect x="152" y="160" width="12" height="12" rx="2.5" fill="#5E81AC"><title>2025-11-06: 7 contributions</title></rect>
<rect x="152" y="175" width="12" height="12" rx="2.5" fill="#81A1C1"><title>2025-11-07: 1 contribution</title></rect>
<rect x="152" y="190" width="12" height="12" rx="2.5" fill="#D8DEE9"><title>2025-11-08: 0 contributions</title></rect>
<rect x="167" y="100" width="12" height="12" rx="2.5" fill="#81A1C1"><title>2025-11-09: 3 contributions</title></rect>
<rect x="167" y="115" width="12" height="12" rx="2.5" fill="#2E3440"><title>2025-11-10: 23 contributions</title></rect>
<rect x="167" y="130" width="12" height="12" rx="2.5" fill="#4C566A"><title>2025-11-11: 18 contributions</title></rect>
<rect x="167" y="145" width="12" height="12" rx="2.5" fill="#5E81AC"><title>2025-11-12: 7 contributions</title></rect>
<rect x="167" y="160" width="12" height="12" rx="2.5" fill="#5E81AC"><title>2025-11-13: 4 contributions</title></rect>
<rect x="167" y="175" width="12" height="12" rx="2.5" fill="#D8DEE9"><title>2025-11-14: 0 contributions</title></rect>
<rect x="167" y="190" width="12" height="12" rx="2.5" fill="#81A1C1"><title>2025-11-15: 1 contribution</title></rect>
<rect x="182" y="100" width="12" height="12" rx="2.5" fill="#4C566A"><title>2025-11-16: 14 contributions</title></rect>
<rect x="182" y="115" width="12" height="12" rx="2.5" fill="#4C566A"><title>2025-11-17: 12 contributions</title></rect>
<rect x="182" y="130" width="12" height="12" rx="2.5" fill="#4C566A"><title>2025-11-18: 12 contributions</title></rect>
<rect x="182" y="145" width="12" height="12" rx="2.5" fill="#81A1C1"><title>2025-11-19: 1 contribution</title></rect>
<rect x="182" y="160" width="12" height="12" rx="2.5" fill="#D8DEE9"><title>2025-11-20: 0 contributions</title></rect>
<rect x="182" y="175" width="12" height="12" rx="2.5" fill="#D8DEE9"><title>2025-11-21: 0 contributions</title></rect>
<rect x="182" y="190" width="12" height="12" rx="2.5" fill="#D8DEE9"><title>2025-11-22: 0 contributions</title></rect>
<rect x="197" y="100" width="12" height="12" rx="2.5" fill="#5E81AC"><title>2025-11-23: 5 contributions</title></rect>
<rect x="197" y="115" width="12" height="12" rx="2.5" fill="#5E81AC"><title>2025-11-24: 7 contributions</title></rect>
<rect x="197" y="130" width="12" height="12" rx="2.5" fill="#D8DEE9"><title>2025-11-25: 0 contributions</title></rect>
<rect x="197" y="145" width="12" height="12" rx="2.5" fill="#4C566A"><title>2025-11-26: 13 contributions</title></rect>
<rect x="197" y="160" width="12" height="12" rx="2.5" fill="#D8DEE9"><title>2025-11-27: 0 contributions</title></rect>
<rect x="197" y="175" width="12" height="12" rx="2.5" fill="#5E81AC"><title>2025-11-28: 7 contributions</title></rect>
<rect x="197" y="190" width="12" height="12" rx="2.5" fill="#D8DEE9"><title>2025-11-29: 0 contributions</title></rect>
<rect x="212" y="100" width="12" height="12" rx="2.5" fill="#4C566A"><title>2025-11-30: 16 contributions</title></rect>
<rect x="212" y="115" width="12" height="12" rx="2.5" fill="#81A1C1"><title>2025-12-01: 2 contributions</title></rect>
<rect x="212" y="130" width="12" height="12" rx="2.5" fill="#D8DEE9"><title>2025-12-02: 0 contributions</title></rect>
<rect x="212" y="145" width="12" height="12" rx="2.5" fill="#4C566A"><title>2025-12-03: 14 contributions</title></rect>
<rect x="212" y="160" width="12" height="12" rx="2.5" fill="#81A1C1"><title>2025-12-04: 3 contributions</title></rect>
<rect x="212" y="175" width="12" height="12" rx="2.5" fill="#4C566A"><title>2025-12-05: 16 contributions</title></rect>
<rect x="212" y="190" width="12" height="12" rx="2.5" fill="#D8DEE9"><title>2025-12-06: 0 contributions</title></rect>
<rect x="227" y="100" width="12" height="12" rx="2.5" fill="#D8DEE9"><title>2025-12-07: 0 contributions</title></rect>
<rect x="227" y="115" width="12" height="12" rx="2.5" fill="#D8DEE9"><title>2025-12-08: 0 contributions</title></rect>
<rect x="227" y="130" width="12" height="12" rx="2.5" fill="#D8DEE9"><title>2025-12-09: 0 contributions</title></rect>
<rect x="227" y="145" width="12" height="12" rx="2.5" fill="#D8DEE9"><title>2025-12-10: 0 contributions</title></rect>
<rect x="227" y="160" width="12" height="12" rx="2.5" fill="#D8DEE9"><title>2025-12-11: 0 contributions</title></rect>
<rect x="227" y="175" width="12" height="12" rx="2.5" fill="#81A1C1"><title>2025-12-12: 1 contribution</title></rect>
<rect x="227" y="190" width="12" height="12" rx="2.5" fill="#D8DEE9"><title>2025-12-13: 0 contributions</title></rect>
<rect x="242" y="100" width="12" height="12" rx="2.5" fill="#81A1C1"><title>2025-12-14: 1 contribution</title></rect>
<rect x="242" y="115" width="12" height="12" rx="2.5" fill="#D8DEE9"><title>2025-12-15: 0 contributions</title></rect>
<rect x="242" y="130" width="12" height="12" rx="2.5" fill="#D8DEE9"><title>2025-12-16: 0 contributions</title></rect>
<rect x="242" y="145" width="12" height="12" rx="2.5" fill="#D8DEE9"><title>2025-12-17: 0 contributions</title></rect>
<rect x="242" y="160" width="12" height="12" rx="2.5" fill="#D8DEE9"><title>2025-12-18: 0 contributions</title></rect>
<rect x="242" y="175" width="12" height="12" rx="2.5" fill="#D8DEE9"><title>2025-12-19: 0 contributions</title></rect>
<rect x="242" y="190" width="12" height="12" rx="2.5" fill="#D8DEE9"><title>2025-12-20: 0 contributions</title></rect>
<rect x="257" y="100" width="12" height="12" rx="2.5" fill="#D8DEE9"><title>2025-12-21: 0 contributions</title></rect>
<rect x="257" y="115" width="12" height="12" rx="2.5" fill="#D8DEE9"><title>2025-12-22: 0 contributions</title></rect>
<rect x="257" y="130" width="12" height="12" rx="2.5" fill="#D8DEE9"><title>2025-12-23: 0 contributions</title></rect>
<rect x="257" y="145" width="12" height="12" rx="2.5" fill="#D8DEE9"><title>2025-12-24: 0 contributions</title></rect>
<rect x="257" y="160" width="12" height="12" rx="2.5" fill="#81A1C1"><title>2025-12-25: 2 contributions</title></rect>
<rect x="257" y="175" width="12" height="12" rx="2.5" fill="#D8DEE9"><title>2025-12-26: 0 contributions</title></rect>
<rect x="257" y="190" width="12" height="12" rx="2.5" fill="#D8DEE9"><title>2025-12-27: 0 contributions</title></rect>
<rect x="272" y="100" width="12" height="12" rx="2.5" fill="#4C566A"><title>2025-12-28: 15 contributions</title></rect>
<rect x="272" y="115" width="12" height="12" rx="2.5" fill="#D8DEE9"><title>2025-12-29: 0 contributions</title></rect>
<rect x="272" y="130" width="12" height="12" rx="2.5" fill="#D8DEE9"><title>2025-12-30: 0 contributions</title></rect>
<rect x="272" y="145" width="12" height="12" rx="2.5" fill="#81A1C1"><title>2025-12-31: 1 contribution</title></rect>
<rect x="272" y="160" width="12" height="12" rx="2.5" fill="#D8DEE9"><title>2026-01-01: 0 contributions</title></rect>
<rect x="272" y="175" width="12" height="12" rx="2.5" fill="#D8DEE9"><title>2026-01-02: 0 contributions</title></rect>
<rect x="272" y="190" width="12" height="12" rx="2.5" fill="#D8DEE9"><title>2026-01-03: 0 contributions</title></rect>
<rect x="287" y="100" width="12" height="12" rx="2.5" fill="#D8DEE9"><title>2026-01-04: 0 contributions</title></rect>
<rect x="287" y="115" width="12" height="12" rx="2.5" fill="#D8DEE9"><title>2026-01-05: 0 contributions</title></rect>
<rect x="287" y="130" width="12" height="12" rx="2.5" fill="#D8DEE9"><title>2026-01-06: 0 contributions</title></rect>
<rect x="287" y="145" width="12" height="12" rx="2.5" fill="#D8DEE9"><title>2026-01-07: 0 contributions</title></rect>
<rect x="287" y="160" width="12" height="12" rx="2.5" fill="#D8DEE9"><title>2026-01-08: 0 contributions</title></rect>
<rect x="287" y="175" width="12" height="12" rx="2.5" fill="#D8DEE9"><title>2026-01-09: 0 contributions</title></rect>
<rect x="287" y="190" width="12" height="12" rx="2.5" fill="#D8DEE9"><title>2026-01-10: 0 contributions</title></rect>
<rect x="302" y="100" width="12" height="12" rx="2.5" fill="#D8DEE9"><title>2026-01-11: 0 contributions</title></rect>
<rect x="302" y="115" width="12" height="12" rx="2.5" fill="#D8DEE9"><title>2026-01-12: 0 contributions</title></rect>
<rect x="302" y="130" width="12" height="12" rx="2.5" fill="#D8DEE9"><title>2026-01-13: 0 contributions</title></rect>
<rect x="302" y="145" width="12" height="12" rx="2.5" fill="#D8DEE9"><title>2026-01-14: 0 contributions</title></rect>
<rect x="302" y="160" width="12" height="12" rx="2.5" fill="#D8DEE9"><title>2026-01-15: 0 contributions</title></rect>
<rect x="302" y="175" width="12" height="12" rx="2.5" fill="#D8DEE9"><title>2026-01-16: 0 contributions</title></rect>
<rect x="302" y="190" width="12" height="12" rx="2.5" fill="#D8DEE9"><title>2026-01-17: 0 contributions</title></rect>
<rect x="317" y="100" width="12" height="12" rx="2.5" fill="#4C566A"><title>2026-01-18: 11 contributions</title></rect>
<rect x="317" y="115" width="12" height="12" rx="2.5" fill="#4C566A"><title>2026-01-19: 14 contributions</title></rect>
<rect x="317" y="130" width="12" height="12" rx="2.5" fill="#D8DEE9"><title>2026-01-20: 0 contributions</title></rect>
<rect x="317" y="145" width="12" height="12" rx="2.5" fill="#D8DEE9"><title>2026-01-21: 0 contributions</title></rect>
<rect x="317" y="160" width="12" height="12" rx="2.5" fill="#2E3440"><title>2026-01-22: 22 contributions</title></rect>
<rect x="317" y="175" width="12" height="12" rx="2.5" fill="#4C566A"><title>2026-01-23: 13 contributions</title></rect>
<rect x="317" y="190" width="12" height="12" rx="2.5" fill="#5E81AC"><title>2026-01-24: 9 contributions</title></rect>
<rect x="332" y="100" width="12" height="12" rx="2.5" fill="#5E81AC"><title>2026-01-25: 5 contributions</title></rect>
<rect x="332" y="115" width="12" height="12" rx="2.5" fill="#D8DEE9"><title>2026-01-26: 0 contributions</title></rect>
<rect x="332" y="130" width="12" height="12" rx="2.5" fill="#5E81AC"><title>2026-01-27: 4 contributions</title></rect>
<rect x="332" y="145" width="12" height="12" rx="2.5" fill="#2E3440"><title>2026-01-28: 62 contributions</title></rect>
<rect x="332" y="160" width="12" height="12" rx="2.5" fill="#2E3440"><title>2026-01-29: 31 contributions</title></rect>
<rect x="332" y="175" width="12" height="12" rx="2.5" fill="#2E3440"><title>2026-01-30: 87 contributions</title></rect>
<rect x="332" y="190" width="12" height="12" rx="2.5" fill="#2E3440"><title>2026-01-31: 48 contributions</title></rect>
<rect x="347" y="100" width="12" height="12" rx="2.5" fill="#2E3440"><title>2026-02-01: 47 contributions</title></rect>
<rect x="347" y="115" width="12" height="12" rx="2.5" fill="#2E3440"><title>2026-02-02: 36 contributions</title></rect>
<rect x="347" y="130" width="12" height="12" rx="2.5" fill="#81A1C1"><title>2026-02-03: 1 contribution</title></rect>
<rect x="347" y="145" width="12" height="12" rx="2.5" fill="#4C566A"><title>2026-02-04: 14 contributions</title></rect>
<rect x="347" y="160" width="12" height="12" rx="2.5" fill="#2E3440"><title>2026-02-05: 77 contributions</title></rect>
<rect x="347" y="175" width="12" height="12" rx="2.5" fill="#2E3440"><title>2026-02-06: 53 contributions</title></rect>
<rect x="347" y="190" width="12" height="12" rx="2.5" fill="#2E3440"><title>2026-02-07: 93 contributions</title></rect>
<rect x="362" y="100" width="12" height="12" rx="2.5" fill="#D8DEE9"><title>2026-02-08: 0 contributions</title></rect>
<rect x="362" y="115" width="12" height="12" rx="2.5" fill="#2E3440"><title>2026-02-09: 84 contributions</title></rect>
<rect x="362" y="130" width="12" height="12" rx="2.5" fill="#2E3440"><title>2026-02-10: 49 contributions</title></rect>
<rect x="362" y="145" width="12" height="12" rx="2.5" fill="#2E3440"><title>2026-02-11: 98 contributions</title></rect>
<rect x="362" y="160" width="12" height="12" rx="2.5" fill="#5E81AC"><title>2026-02-12: 9 contributions</title></rect>
<rect x="362" y="175" width="12" height="12" rx="2.5" fill="#D8DEE9"><title>2026-02-13: 0 contributions</title></rect>
<rect x="362" y="190" width="12" height="12" rx="2.5" fill="#5E81AC"><title>2026-02-14: 5 contributions</title></rect>
<rect x="377" y="100" width="12" height="12" rx="2.5" fill="#D8DEE9"><title>2026-02-15: 0 contributions</title></rect>
<rect x="377" y="115" width="12" height="12" rx="2.5" fill="#D8DEE9"><title>2026-02-16: 0 contributions</title></rect>
<rect x="377" y="130" width="12" height="12" rx="2.5" fill="#D8DEE9"><title>2026-02-17: 0 contributions</title></rect>
<rect x="377" y="145" width="12" height="12" rx="2.5" fill="#D8DEE9"><title>2026-02-18: 0 contributions</title></rect>
<rect x="377" y="160" width="12" height="12" rx="2.5" fill="#D8DEE9"><title>2026-02-19: 0 contributions</title></rect>
<rect x="377" y="175" width="12" height="12" rx="2.5" fill="#D8DEE9"><title>2026-02-20: 0 contributions</title></rect>
<rect x="377" y="190" width="12" height="12" rx="2.5" fill="#D8DEE9"><title>2026-02-21: 0 contributions</title></rect>
<rect x="392" y="100" width="12" height="12" rx="2.5" fill="#2E3440"><title>2026-02-22: 32 contributions</title></rect>
<rect x="392" y="115" width="12" height="12" rx="2.5" fill="#2E3440"><title>2026-02-23: 80 contributions</title></rect>
<rect x="392" y="130" width="12" height="12" rx="2.5" fill="#2E3440"><title>2026-02-24: 50 contributions</title></rect>
<rect x="392" y="145" width="12" height="12" rx="2.5" fill="#D8DEE9"><title>2026-02-25: 0 contributions</title></rect>
<rect x="392" y="160" width="12" height="12" rx="2.5" fill="#D8DEE9"><title>2026-02-26: 0 contributions</title></rect>
<rect x="392" y="175" width="12" height="12" rx="2.5" fill="#D8DEE9"><title>2026-02-27: 0 contributions</title></rect>
<rect x="392" y="190" width="12" height="12" rx="2.5" fill="#D8DEE9"><title>2026-02-28: 0 contributions</title></rect>
<rect x="407" y="100" width="12" height="12" rx="2.5" fill="#2E3440"><title>2026-03-01: 75 contributions</title></rect>
<rect x="407" y="115" width="12" height="12" rx="2.5" fill="#4C566A"><title>2026-03-02: 17 contributions</title></rect>
<rect x="407" y="130" width="12" height="12" rx="2.5" fill="#4C566A"><title>2026-03-03: 15 contributions</title></rect>
<rect x="407" y="145" width="12" height="12" rx="2.5" fill="#2E3440"><title>2026-03-04: 37 contributions</title></rect>
<rect x="407" y="160" width="12" height="12" rx="2.5" fill="#2E3440"><title>2026-03-05: 94 contributions</title></rect>
<rect x="407" y="175" width="12" height="12" rx="2.5" fill="#2E3440"><title>2026-03-06: 90 contributions</title></rect>
<rect x="407" y="190" width="12" height="12" rx="2.5" fill="#2E3440"><title>2026-03-07: 122 contributions</title></rect>
<rect x="422" y="100" width="12" height="12" rx="2.5" fill="#2E3440"><title>2026-03-08: 45 contributions</title></rect>
<rect x="422" y="115" width="12" height="12" rx="2.5" fill="#5E81AC"><title>2026-03-09: 8 contributions</title></rect>
<rect x="422" y="130" width="12" height="12" rx="2.5" fill="#D8DEE9"><title>2026-03-10: 0 contributions</title></rect>
<rect x="422" y="145" width="12" height="12" rx="2.5" fill="#5E81AC"><title>2026-03-11: 4 contributions</title></rect>
<rect x="422" y="160" width="12" height="12" rx="2.5" fill="#81A1C1"><title>2026-03-12: 3 contributions</title></rect>
<rect x="422" y="175" width="12" height="12" rx="2.5" fill="#D8DEE9"><title>2026-03-13: 0 contributions</title></rect>
<rect x="422" y="190" width="12" height="12" rx="2.5" fill="#D8DEE9"><title>2026-03-14: 0 contributions</title></rect>
<rect x="437" y="100" width="12" height="12" rx="2.5" fill="#D8DEE9"><title>2026-03-15: 0 contributions</title></rect>
<rect x="437" y="115" width="12" height="12" rx="2.5" fill="#D8DEE9"><title>2026-03-16: 0 contributions</title></rect>
<rect x="437" y="130" width="12" height="12" rx="2.5" fill="#D8DEE9"><title>2026-03-17: 0 contributions</title></rect>
<rect x="437" y="145" width="12" height="12" rx="2.5" fill="#D8DEE9"><title>2026-03-18: 0 contributions</title></rect>
<rect x="437" y="160" width="12" height="12" rx="2.5" fill="#D8DEE9"><title>2026-03-19: 0 contributions</title></rect>
<rect x="437" y="175" width="12" height="12" rx="2.5" fill="#D8DEE9"><title>2026-03-20: 0 contributions</title></rect>
<rect x="437" y="190" width="12" height="12" rx="2.5" fill="#D8DEE9"><title>2026-03-21: 0 contributions</title></rect>
<rect x="452" y="100" width="12" height="12" rx="2.5" fill="#D8DEE9"><title>2026-03-22: 0 contributions</title></rect>
<rect x="452" y="115" width="12" height="12" rx="2.5" fill="#D8DEE9"><title>2026-03-23: 0 contributions</title></rect>
<rect x="452" y="130" width="12" height="12" rx="2.5" fill="#D8DEE9"><title>2026-03-24: 0 contributions</title></rect>
<rect x="452" y="145" width="12" height="12" rx="2.5" fill="#D8DEE9"><title>2026-03-25: 0 contributions</title></rect>
<rect x="452" y="160" width="12" height="12" rx="2.5" fill="#D8DEE9"><title>2026-03-26: 0 contributions</title></rect>
<rect x="452" y="175" width="12" height="12" rx="2.5" fill="#D8DEE9"><title>2026-03-27: 0 contributions</title></rect>
<rect x="452" y="190" width="12" height="12" rx="2.5" fill="#D8DEE9"><title>2026-03-28: 0 contributions</title></rect>
<rect x="467" y="100" width="12" height="12" rx="2.5" fill="#D8DEE9"><title>2026-03-29: 0 contributions</title></rect>
<rect x="467" y="115" width="12" height="12" rx="2.5" fill="#D8DEE9"><title>2026-03-30: 0 contributions</title></rect>
<rect x="467" y="130" width="12" height="12" rx="2.5" fill="#D8DEE9"><title>2026-03-31: 0 contributions</title></rect>
<rect x="467" y="145" width="12" height="12" rx="2.5" fill="#81A1C1"><title>2026-04-01: 1 contribution</title></rect>
<rect x="467" y="160" width="12" height="12" rx="2.5" fill="#81A1C1"><title>2026-04-02: 1 contribution</title></rect>
<rect x="467" y="175" width="12" height="12" rx="2.5" fill="#D8DEE9"><title>2026-04-03: 0 contributions</title></rect>
<rect x="467" y="190" width="12" height="12" rx="2.5" fill="#D8DEE9"><title>2026-04-04: 0 contributions</title></rect>
<rect x="482" y="100" width="12" height="12" rx="2.5" fill="#D8DEE9"><title>2026-04-05: 0 contributions</title></rect>
<rect x="482" y="115" width="12" height="12" rx="2.5" fill="#D8DEE9"><title>2026-04-06: 0 contributions</title></rect>
<rect x="482" y="130" width="12" height="12" rx="2.5" fill="#D8DEE9"><title>2026-04-07: 0 contributions</title></rect>
<rect x="482" y="145" width="12" height="12" rx="2.5" fill="#81A1C1"><title>2026-04-08: 1 contribution</title></rect>
<rect x="482" y="160" width="12" height="12" rx="2.5" fill="#2E3440"><title>2026-04-09: 22 contributions</title></rect>
<rect x="482" y="175" width="12" height="12" rx="2.5" fill="#4C566A"><title>2026-04-10: 14 contributions</title></rect>
<rect x="482" y="190" width="12" height="12" rx="2.5" fill="#D8DEE9"><title>2026-04-11: 0 contributions</title></rect>
<rect x="497" y="100" width="12" height="12" rx="2.5" fill="#D8DEE9"><title>2026-04-12: 0 contributions</title></rect>
<rect x="497" y="115" width="12" height="12" rx="2.5" fill="#D8DEE9"><title>2026-04-13: 0 contributions</title></rect>
<rect x="497" y="130" width="12" height="12" rx="2.5" fill="#81A1C1"><title>2026-04-14: 2 contributions</title></rect>
<rect x="497" y="145" width="12" height="12" rx="2.5" fill="#81A1C1"><title>2026-04-15: 2 contributions</title></rect>
<rect x="497" y="160" width="12" height="12" rx="2.5" fill="#D8DEE9"><title>2026-04-16: 0 contributions</title></rect>
<rect x="497" y="175" width="12" height="12" rx="2.5" fill="#4C566A"><title>2026-04-17: 13 contributions</title></rect>
<rect x="497" y="190" width="12" height="12" rx="2.5" fill="#4C566A"><title>2026-04-18: 14 contributions</title></rect>
<rect x="512" y="100" width="12" height="12" rx="2.5" fill="#D8DEE9"><title>2026-04-19: 0 contributions</title></rect>
<rect x="512" y="115" width="12" height="12" rx="2.5" fill="#D8DEE9"><title>2026-04-20: 0 contributions</title></rect>
<rect x="512" y="130" width="12" height="12" rx="2.5" fill="#4C566A"><title>2026-04-21: 20 contributions</title></rect>
<rect x="512" y="145" width="12" height="12" rx="2.5" fill="#5E81AC"><title>2026-04-22: 9 contributions</title></rect>
<rect x="512" y="160" width="12" height="12" rx="2.5" fill="#4C566A"><title>2026-04-23: 20 contributions</title></rect>
<rect x="512" y="175" width="12" height="12" rx="2.5" fill="#2E3440"><title>2026-04-24: 27 contributions</title></rect>
<rect x="512" y="190" width="12" height="12" rx="2.5" fill="#D8DEE9"><title>2026-04-25: 0 contributions</title></rect>
<rect x="527" y="100" width="12" height="12" rx="2.5" fill="#81A1C1"><title>2026-04-26: 1 contribution</title></rect>
<rect x="527" y="115" width="12" height="12" rx="2.5" fill="#81A1C1"><title>2026-04-27: 3 contributions</title></rect>
<rect x="527" y="130" width="12" height="12" rx="2.5" fill="#81A1C1"><title>2026-04-28: 1 contribution</title></rect>
<rect x="527" y="145" width="12" height="12" rx="2.5" fill="#81A1C1"><title>2026-04-29: 1 contribution</title></rect>
<rect x="527" y="160" width="12" height="12" rx="2.5" fill="#D8DEE9"><title>2026-04-30: 0 contributions</title></rect>
<rect x="527" y="175" width="12" height="12" rx="2.5" fill="#D8DEE9"><title>2026-05-01: 0 contributions</title></rect>
<rect x="527" y="190" width="12" height="12" rx="2.5" fill="#D8DEE9"><title>2026-05-02: 0 contributions</title></rect>
<rect x="542" y="100" width="12" height="12" rx="2.5" fill="#D8DEE9"><title>2026-05-03: 0 contributions</title></rect>
<rect x="542" y="115" width="12" height="12" rx="2.5" fill="#D8DEE9"><title>2026-05-04: 0 contributions</title></rect>
<rect x="542" y="130" width="12" height="12" rx="2.5" fill="#D8DEE9"><title>2026-05-05: 0 contributions</title></rect>
<rect x="542" y="145" width="12" height="12" rx="2.5" fill="#5E81AC"><title>2026-05-06: 4 contributions</title></rect>
<rect x="542" y="160" width="12" height="12" rx="2.5" fill="#D8DEE9"><title>2026-05-07: 0 contributions</title></rect>
<rect x="542" y="175" width="12" height="12" rx="2.5" fill="#D8DEE9"><title>2026-05-08: 0 contributions</title></rect>
<rect x="542" y="190" width="12" height="12" rx="2.5" fill="#4C566A"><title>2026-05-09: 17 contributions</title></rect>
<rect x="557" y="100" width="12" height="12" rx="2.5" fill="#D8DEE9"><title>2026-05-10: 0 contributions</title></rect>
<rect x="557" y="115" width="12" height="12" rx="2.5" fill="#81A1C1"><title>2026-05-11: 3 contributions</title></rect>
<rect x="557" y="130" width="12" height="12" rx="2.5" fill="#81A1C1"><title>2026-05-12: 3 contributions</title></rect>
<rect x="557" y="145" width="12" height="12" rx="2.5" fill="#5E81AC"><title>2026-05-13: 4 contributions</title></rect>
<rect x="557" y="160" width="12" height="12" rx="2.5" fill="#D8DEE9"><title>2026-05-14: 0 contributions</title></rect>
<rect x="557" y="175" width="12" height="12" rx="2.5" fill="#D8DEE9"><title>2026-05-15: 0 contributions</title></rect>
<rect x="557" y="190" width="12" height="12" rx="2.5" fill="#D8DEE9"><title>2026-05-16: 0 contributions</title></rect>
<rect x="572" y="100" width="12" height="12" rx="2.5" fill="#D8DEE9"><title>2026-05-17: 0 contributions</title></rect>
<rect x="572" y="115" width="12" height="12" rx="2.5" fill="#5E81AC"><title>2026-05-18: 4 contributions</title></rect>
<rect x="572" y="130" width="12" height="12" rx="2.5" fill="#81A1C1"><title>2026-05-19: 1 contribution</title></rect>
<rect x="572" y="145" width="12" height="12" rx="2.5" fill="#D8DEE9"><title>2026-05-20: 0 contributions</title></rect>
<rect x="572" y="160" width="12" height="12" rx="2.5" fill="#5E81AC"><title>2026-05-21: 6 contributions</title></rect>
<rect x="572" y="175" width="12" height="12" rx="2.5" fill="#81A1C1"><title>2026-05-22: 3 contributions</title></rect>
<rect x="572" y="190" width="12" height="12" rx="2.5" fill="#D8DEE9"><title>2026-05-23: 0 contributions</title></rect>
<rect x="587" y="100" width="12" height="12" rx="2.5" fill="#D8DEE9"><title>2026-05-24: 0 contributions</title></rect>
<rect x="587" y="115" width="12" height="12" rx="2.5" fill="#4C566A"><title>2026-05-25: 15 contributions</title></rect>
<rect x="587" y="130" width="12" height="12" rx="2.5" fill="#4C566A"><title>2026-05-26: 10 contributions</title></rect>
<rect x="587" y="145" width="12" height="12" rx="2.5" fill="#5E81AC"><title>2026-05-27: 8 contributions</title></rect>
<rect x="587" y="160" width="12" height="12" rx="2.5" fill="#81A1C1"><title>2026-05-28: 2 contributions</title></rect>
<rect x="587" y="175" width="12" height="12" rx="2.5" fill="#D8DEE9"><title>2026-05-29: 0 contributions</title></rect>
<rect x="587" y="190" width="12" height="12" rx="2.5" fill="#5E81AC"><title>2026-05-30: 5 contributions</title></rect>
<rect x="602" y="100" width="12" height="12" rx="2.5" fill="#D8DEE9"><title>2026-05-31: 0 contributions</title></rect>
<rect x="602" y="115" width="12" height="12" rx="2.5" fill="#D8DEE9"><title>2026-06-01: 0 contributions</title></rect>
<rect x="602" y="130" width="12" height="12" rx="2.5" fill="#4C566A"><title>2026-06-02: 11 contributions</title></rect>
<rect x="602" y="145" width="12" height="12" rx="2.5" fill="#81A1C1"><title>2026-06-03: 1 contribution</title></rect>
<rect x="602" y="160" width="12" height="12" rx="2.5" fill="#D8DEE9"><title>2026-06-04: 0 contributions</title></rect>
<rect x="602" y="175" width="12" height="12" rx="2.5" fill="#D8DEE9"><title>2026-06-05: 0 contributions</title></rect>
<rect x="602" y="190" width="12" height="12" rx="2.5" fill="#D8DEE9"><title>2026-06-06: 0 contributions</title></rect>
<rect x="617" y="100" width="12" height="12" rx="2.5" fill="#81A1C1"><title>2026-06-07: 3 contributions</title></rect>
<rect x="617" y="115" width="12" height="12" rx="2.5" fill="#D8DEE9"><title>2026-06-08: 0 contributions</title></rect>
<rect x="617" y="130" width="12" height="12" rx="2.5" fill="#D8DEE9"><title>2026-06-09: 0 contributions</title></rect>
<rect x="617" y="145" width="12" height="12" rx="2.5" fill="#81A1C1"><title>2026-06-10: 2 contributions</title></rect>
<rect x="617" y="160" width="12" height="12" rx="2.5" fill="#D8DEE9"><title>2026-06-11: 0 contributions</title></rect>
<rect x="617" y="175" width="12" height="12" rx="2.5" fill="#5E81AC"><title>2026-06-12: 4 contributions</title></rect>
<rect x="617" y="190" width="12" height="12" rx="2.5" fill="#81A1C1"><title>2026-06-13: 3 contributions</title></rect>
<rect x="632" y="100" width="12" height="12" rx="2.5" fill="#4C566A"><title>2026-06-14: 14 contributions</title></rect>
<rect x="632" y="115" width="12" height="12" rx="2.5" fill="#D8DEE9"><title>2026-06-15: 0 contributions</title></rect>
<rect x="632" y="130" width="12" height="12" rx="2.5" fill="#D8DEE9"><title>2026-06-16: 0 contributions</title></rect>
<rect x="632" y="145" width="12" height="12" rx="2.5" fill="#D8DEE9"><title>2026-06-17: 0 contributions</title></rect>
<rect x="632" y="160" width="12" height="12" rx="2.5" fill="#D8DEE9"><title>2026-06-18: 0 contributions</title></rect>
<rect x="632" y="175" width="12" height="12" rx="2.5" fill="#D8DEE9"><title>2026-06-19: 0 contributions</title></rect>
<rect x="632" y="190" width="12" height="12" rx="2.5" fill="#2E3440"><title>2026-06-20: 31 contributions</title></rect>
<rect x="647" y="100" width="12" height="12" rx="2.5" fill="#2E3440"><title>2026-06-21: 21 contributions</title></rect>
<rect x="647" y="115" width="12" height="12" rx="2.5" fill="#4C566A"><title>2026-06-22: 13 contributions</title></rect>
<rect x="647" y="130" width="12" height="12" rx="2.5" fill="#4C566A"><title>2026-06-23: 11 contributions</title></rect>
<rect x="647" y="145" width="12" height="12" rx="2.5" fill="#4C566A"><title>2026-06-24: 14 contributions</title></rect>
<rect x="647" y="160" width="12" height="12" rx="2.5" fill="#4C566A"><title>2026-06-25: 13 contributions</title></rect>
<rect x="647" y="175" width="12" height="12" rx="2.5" fill="#D8DEE9"><title>2026-06-26: 0 contributions</title></rect>
<rect x="647" y="190" width="12" height="12" rx="2.5" fill="#D8DEE9"><title>2026-06-27: 0 contributions</title></rect>
<rect x="662" y="100" width="12" height="12" rx="2.5" fill="#D8DEE9"><title>2026-06-28: 0 contributions</title></rect>
<rect x="662" y="115" width="12" height="12" rx="2.5" fill="#D8DEE9"><title>2026-06-29: 0 contributions</title></rect>
<rect x="662" y="130" width="12" height="12" rx="2.5" fill="#D8DEE9"><title>2026-06-30: 0 contributions</title></rect>
<rect x="662" y="145" width="12" height="12" rx="2.5" fill="#D8DEE9"><title>2026-07-01: 0 contributions</title></rect>
<rect x="662" y="160" width="12" height="12" rx="2.5" fill="#D8DEE9"><title>2026-07-02: 0 contributions</title></rect>
<rect x="662" y="175" width="12" height="12" rx="2.5" fill="#D8DEE9"><title>2026-07-03: 0 contributions</title></rect>
<rect x="662" y="190" width="12" height="12" rx="2.5" fill="#D8DEE9"><title>2026-07-04: 0 contributions</title></rect>
<rect x="677" y="100" width="12" height="12" rx="2.5" fill="#5E81AC"><title>2026-07-05: 9 contributions</title></rect>
<rect x="677" y="115" width="12" height="12" rx="2.5" fill="#2E3440"><title>2026-07-06: 25 contributions</title></rect>
<rect x="677" y="130" width="12" height="12" rx="2.5" fill="#2E3440"><title>2026-07-07: 30 contributions</title></rect>
<rect x="677" y="145" width="12" height="12" rx="2.5" fill="#81A1C1"><title>2026-07-08: 3 contributions</title></rect>
<rect x="677" y="160" width="12" height="12" rx="2.5" fill="#5E81AC"><title>2026-07-09: 7 contributions</title></rect>
<rect x="677" y="175" width="12" height="12" rx="2.5" fill="#D8DEE9"><title>2026-07-10: 0 contributions</title></rect>
<rect x="677" y="190" width="12" height="12" rx="2.5" fill="#81A1C1"><title>2026-07-11: 1 contribution</title></rect>
<rect x="692" y="100" width="12" height="12" rx="2.5" fill="#D8DEE9"><title>2026-07-12: 0 contributions</title></rect>
<rect x="692" y="115" width="12" height="12" rx="2.5" fill="#5E81AC"><title>2026-07-13: 5 contributions</title></rect>
<rect x="692" y="130" width="12" height="12" rx="2.5" fill="#4C566A"><title>2026-07-14: 20 contributions</title></rect>
<rect x="692" y="145" width="12" height="12" rx="2.5" fill="#2E3440"><title>2026-07-15: 36 contributions</title></rect>
<rect x="692" y="160" width="12" height="12" rx="2.5" fill="#5E81AC"><title>2026-07-16: 7 contributions</title></rect>
<rect x="692" y="175" width="12" height="12" rx="2.5" fill="#81A1C1"><title>2026-07-17: 1 contribution</title></rect>
<rect x="692" y="190" width="12" height="12" rx="2.5" fill="#D8DEE9"><title>2026-07-18: 0 contributions</title></rect>
<rect x="707" y="100" width="12" height="12" rx="2.5" fill="#4C566A"><title>2026-07-19: 16 contributions</title></rect>
<rect x="707" y="115" width="12" height="12" rx="2.5" fill="#D8DEE9"><title>2026-07-20: 0 contributions</title></rect>
<rect x="707" y="130" width="12" height="12" rx="2.5" fill="#81A1C1"><title>2026-07-21: 2 contributions</title></rect>
<rect x="707" y="145" width="12" height="12" rx="2.5" fill="#81A1C1"><title>2026-07-22: 2 contributions</title></rect>
<rect x="707" y="160" width="12" height="12" rx="2.5" fill="#81A1C1"><title>2026-07-23: 3 contributions</title></rect>
<rect x="707" y="175" width="12" height="12" rx="2.5" fill="#5E81AC"><title>2026-07-24: 8 contributions</title></rect>
<rect x="707" y="190" width="12" height="12" rx="2.5" fill="#5E81AC"><title>2026-07-25: 9 contributions</title></rect>
<rect x="722" y="100" width="12" height="12" rx="2.5" fill="#81A1C1"><title>2026-07-26: 2 contributions</title></rect>
<rect x="722" y="115" width="12" height="12" rx="2.5" fill="#5E81AC"><title>2026-07-27: 6 contributions</title></rect>
<rect x="722" y="130" width="12" height="12" rx="2.5" fill="#D8DEE9"><title>2026-07-28: 0 contributions</title></rect>
<rect x="722" y="145" width="12" height="12" rx="2.5" fill="#D8DEE9"><title>2026-07-29: 0 contributions</title></rect>
<rect x="722" y="160" width="12" height="12" rx="2.5" fill="#D8DEE9"><title>2026-07-30: 0 contributions</title></rect>
<rect x="722" y="175" width="12" height="12" rx="2.5" fill="#5E81AC"><title>2026-07-31: 9 contributions</title></rect>
<rect x="722" y="190" width="12" height="12" rx="2.5" fill="#D8DEE9"><title>2026-08-01: 0 contributions</title></rect>
<rect x="737" y="100" width="12" height="12" rx="2.5" fill="#4C566A"><title>2026-08-02: 11 contributions</title></rect>
<rect x="737" y="115" width="12" height="12" rx="2.5" fill="#5E81AC"><title>2026-08-03: 4 contributions</title></rect>
<rect x="737" y="130" width="12" height="12" rx="2.5" fill="#4C566A"><title>2026-08-04: 10 contributions</title></rect>
<rect x="737" y="145" width="12" height="12" rx="2.5" fill="#D8DEE9"><title>2026-08-05: 0 contributions</title></rect>
<rect x="737" y="160" width="12" height="12" rx="2.5" fill="#D8DEE9"><title>2026-08-06: 0 contributions</title></rect>
<rect x="737" y="175" width="12" height="12" rx="2.5" fill="#5E81AC"><title>2026-08-07: 4 contributions</title></rect>
<rect x="737" y="190" width="12" height="12" rx="2.5" fill="#D8DEE9"><title>2026-08-08: 0 contributions</title></rect>
<rect x="752" y="100" width="12" height="12" rx="2.5" fill="#D8DEE9"><title>2026-08-09: 0 contributions</title></rect>
<rect x="752" y="115" width="12" height="12" rx="2.5" fill="#4C566A"><title>2026-08-10: 20 contributions</title></rect>
<rect x="752" y="130" width="12" height="12" rx="2.5" fill="#2E3440"><title>2026-08-11: 23 contributions</title></rect>
<rect x="752" y="145" width="12" height="12" rx="2.5" fill="#5E81AC"><title>2026-08-12: 8 contributions</title></rect>
<rect x="752" y="160" width="12" height="12" rx="2.5" fill="#4C566A"><title>2026-08-13: 15 contributions</title></rect>
<rect x="752" y="175" width="12" height="12" rx="2.5" fill="#2E3440"><title>2026-08-14: 45 contributions</title></rect>
<rect x="752" y="190" width="12" height="12" rx="2.5" fill="#4C566A"><title>2026-08-15: 11 contributions</title></rect>
<rect x="767" y="100" width="12" height="12" rx="2.5" fill="#4C566A"><title>2026-08-16: 11 contributions</title></rect>
<rect x="767" y="115" width="12" height="12" rx="2.5" fill="#2E3440"><title>2026-08-17: 26 contributions</title></rect>
<rect x="767" y="130" width="12" height="12" rx="2.5" fill="#2E3440"><title>2026-08-18: 33 contributions</title></rect>
<rect x="767" y="145" width="12" height="12" rx="2.5" fill="#2E3440"><title>2026-08-19: 23 contributions</title></rect>
<rect x="767" y="160" width="12" height="12" rx="2.5" fill="#2E3440"><title>2026-08-20: 44 contributions</title></rect>
<rect x="767" y="175" width="12" height="12" rx="2.5" fill="#4C566A"><title>2026-08-21: 18 contributions</title></rect>
<rect x="767" y="190" width="12" height="12" rx="2.5" fill="#2E3440"><title>2026-08-22: 46 contributions</title></rect>
<rect x="782" y="100" width="12" height="12" rx="2.5" fill="#81A1C1"><title>2026-08-23: 1 contribution</title></rect>
<rect x="782" y="115" width="12" height="12" rx="2.5" fill="#81A1C1"><title>2026-08-24: 2 contributions</title></rect>
<rect x="782" y="130" width="12" height="12" rx="2.5" fill="#2E3440"><title>2026-08-25: 46 contributions</title></rect>
<rect x="782" y="145" width="12" height="12" rx="2.5" fill="#D8DEE9"><title>2026-08-26: 0 contributions</title></rect>
<rect x="782" y="160" width="12" height="12" rx="2.5" fill="#5E81AC"><title>2026-08-27: 4 contributions</title></rect>
<rect x="782" y="175" width="12" height="12" rx="2.5" fill="#D8DEE9"><title>2026-08-28: 0 contributions</title></rect>
<rect x="782" y="190" width="12" height="12" rx="2.5" fill="#D8DEE9"><title>2026-08-29: 0 contributions</title></rect>
<rect x="797" y="100" width="12" height="12" rx="2.5" fill="#D8DEE9"><title>2026-08-30: 0 contributions</title></rect>
<rect x="797" y="115" width="12" height="12" rx="2.5" fill="#4C566A"><title>2026-08-31: 13 contributions</title></rect>
<rect x="797" y="130" width="12" height="12" rx="2.5" fill="#4C566A"><title>2026-09-01: 13 contributions</title></rect>
<rect x="797" y="145" width="12" height="12" rx="2.5" fill="#4C566A"><title>2026-09-02: 17 contributions</title></rect>
<rect x="797" y="160" width="12" height="12" rx="2.5" fill="#5E81AC"><title>2026-09-03: 8 contributions</title></rect>
<rect x="797" y="175" width="12" height="12" rx="2.5" fill="#2E3440"><title>2026-09-04: 56 contributions</title></rect>
<rect x="797" y="190" width="12" height="12" rx="2.5" fill="#2E3440"><title>2026-09-05: 30 contributions</title></rect>
<rect x="812" y="100" width="12" height="12" rx="2.5" fill="#2E3440"><title>2026-09-06: 22 contributions</title></rect>
<rect x="812" y="115" width="12" height="12" rx="2.5" fill="#2E3440"><title>2026-09-07: 42 contributions</title></rect>
<rect x="812" y="130" width="12" height="12" rx="2.5" fill="#2E3440"><title>2026-09-08: 65 contributions</title></rect>
<rect x="812" y="145" width="12" height="12" rx="2.5" fill="#2E3440"><title>2026-09-09: 37 contributions</title></rect>
<rect x="812" y="160" width="12" height="12" rx="2.5" fill="#4C566A"><title>2026-09-10: 20 contributions</title></rect>
<rect x="812" y="175" width="12" height="12" rx="2.5" fill="#2E3440"><title>2026-09-11: 27 contributions</title></rect>
<rect x="812" y="190" width="12" height="12" rx="2.5" fill="#81A1C1"><title>2026-09-12: 1 contribution</title></rect>
<text x="702" y="232" fill="#4C566A" font-size="11" text-anchor="end">Less</text>
<rect x="708" y="223" width="12" height="12" rx="2.5" fill="#D8DEE9"/>
<rect x="723" y="223" width="12" height="12" rx="2.5" fill="#81A1C1"/>
<rect x="738" y="223" width="12" height="12" rx="2.5" fill="#5E81AC"/>
<rect x="753" y="223" width="12" height="12" rx="2.5" fill="#4C566A"/>
<rect x="768" y="223" width="12" height="12" rx="2.5" fill="#2E3440"/>
<text x="789" y="232" fill="#4C566A" font-size="11">More</text>
<text x="32" y="232" fill="#4C566A" font-size="11">35 public repos · updated 2026-09-12 15:32 UTC</text>
</svg>